HIERARCHY
ROOT Hips
{
	OFFSET 0.000000 0.000000 0.000000
	CHANNELS 6 Xposition Yposition Zposition Xrotation Yrotation Zrotation
	JOINT LeftUpLeg_virtual
	{
		OFFSET 0.000000 0.000000 0.000000
		CHANNELS 3 Xrotation Yrotation Zrotation
		JOINT LeftUpLeg
		{
			OFFSET 11.394100 -6.187798 -0.413800
			CHANNELS 3 Xrotation Yrotation Zrotation
			JOINT LeftLeg
			{
				OFFSET 0.430247 -32.302673 3.732800
				CHANNELS 3 Xrotation Yrotation Zrotation
				JOINT LeftFoot
				{
					OFFSET -0.430247 -48.264931 -6.423300
					CHANNELS 3 Xrotation Yrotation Zrotation
					JOINT LeftToeBase
					{
						OFFSET 4.230900 -16.068199 23.438400
						CHANNELS 3 Xrotation Yrotation Zrotation
						JOINT LeftToe_End
						{
							OFFSET 4.510700 0.695400 19.974600
							CHANNELS 3 Xrotation Yrotation Zrotation
							End Site
							{
								OFFSET 0 0 0
							}
						}
					}
				}
			}
		}
	}
	JOINT RightUpLeg_virtual
	{
		OFFSET 0.000000 0.000000 0.000000
		CHANNELS 3 Xrotation Yrotation Zrotation
		JOINT RightUpLeg
		{
			OFFSET -11.333700 -6.187798 -0.413800
			CHANNELS 3 Xrotation Yrotation Zrotation
			JOINT RightLeg
			{
				OFFSET -0.430392 -32.302628 3.733000
				CHANNELS 3 Xrotation Yrotation Zrotation
				JOINT RightFoot
				{
					OFFSET 0.430392 -48.264973 -6.423500
					CHANNELS 3 Xrotation Yrotation Zrotation
					JOINT RightToeBase
					{
						OFFSET -4.230900 -16.068199 23.438400
						CHANNELS 3 Xrotation Yrotation Zrotation
						JOINT RightToe_End
						{
							OFFSET -4.510700 0.695400 19.974600
							CHANNELS 3 Xrotation Yrotation Zrotation
							End Site
							{
								OFFSET 0 0 0
							}
						}
					}
				}
			}
		}
	}
	JOINT Spine_virtual
	{
		OFFSET 0.000000 0.000000 0.000000
		CHANNELS 3 Xrotation Yrotation Zrotation
		JOINT Spine
		{
			OFFSET -0.002400 12.777504 0.315300
			CHANNELS 3 Xrotation Yrotation Zrotation
			JOINT Spine1
			{
				OFFSET -0.002067 5.816869 0.032633
				CHANNELS 3 Xrotation Yrotation Zrotation
				JOINT Spine1_split
				{
					OFFSET -0.002067 5.816869 0.032633
					CHANNELS 3 Xrotation Yrotation Zrotation
					JOINT Spine2
					{
						OFFSET -0.002067 5.816869 0.032633
						CHANNELS 3 Xrotation Yrotation Zrotation
						JOINT Neck_virtual
						{
							OFFSET 0.000000 0.000000 0.000000
							CHANNELS 3 Xrotation Yrotation Zrotation
							JOINT Neck
							{
								OFFSET -0.003700 21.199493 -0.826900
								CHANNELS 3 Xrotation Yrotation Zrotation
								JOINT Head
								{
									OFFSET 0.000000 20.442200 4.834800
									CHANNELS 3 Xrotation Yrotation Zrotation
									JOINT HeadTop_End
									{
										OFFSET 0.000000 34.668396 4.968400
										CHANNELS 3 Xrotation Yrotation Zrotation
										End Site
										{
											OFFSET 0 0 0
										}
									}
								}
							}
						}
						JOINT LeftShoulder_virtual
						{
							OFFSET 0.000000 0.000000 0.000000
							CHANNELS 3 Xrotation Yrotation Zrotation
							JOINT LeftShoulder
							{
								OFFSET 3.288150 8.794197 -1.372250
								CHANNELS 3 Xrotation Yrotation Zrotation
								JOINT LeftShoulder_split
								{
									OFFSET 3.288150 8.794197 -1.372250
									CHANNELS 3 Xrotation Yrotation Zrotation
									JOINT LeftArm
									{
										OFFSET 11.953299 -2.279007 -0.146200
										CHANNELS 3 Xrotation Yrotation Zrotation
										JOINT LeftForeArm
										{
											OFFSET 18.448900 0.000000 0.000000
											CHANNELS 3 Xrotation Yrotation Zrotation
											JOINT LeftHand
											{
												OFFSET 29.527798 0.000000 0.000000
												CHANNELS 3 Xrotation Yrotation Zrotation
												End Site
												{
													OFFSET 0 0 0
												}
											}
										}
									}
								}
							}
						}
						JOINT RightShoulder_virtual
						{
							OFFSET 0.000000 0.000000 0.000000
							CHANNELS 3 Xrotation Yrotation Zrotation
							JOINT RightShoulder
							{
								OFFSET -3.249400 8.794197 -1.372250
								CHANNELS 3 Xrotation Yrotation Zrotation
								JOINT RightShoulder_split
								{
									OFFSET -3.249400 8.794197 -1.372250
									CHANNELS 3 Xrotation Yrotation Zrotation
									JOINT RightArm
									{
										OFFSET -11.953299 -2.279007 -0.146200
										CHANNELS 3 Xrotation Yrotation Zrotation
										JOINT RightForeArm
										{
											OFFSET -18.448900 0.000000 0.000000
											CHANNELS 3 Xrotation Yrotation Zrotation
											JOINT RightHand
											{
												OFFSET -29.527802 0.000000 0.000000
												CHANNELS 3 Xrotation Yrotation Zrotation
												End Site
												{
													OFFSET 0 0 0
												}
											}
										}
									}
								}
							}
						}
					}
				}
			}
		}
	}
}
MOTION
Frames: 10
Frame Time: 0.03333333
-6.699232 99.091118 -10.076502 0.000000 0.000000 0.000000 -9.768991 -3.388369 4.262004 -12.254263 6.840306 -0.475407 24.474089 2.121289 -0.168988 -3.249196 4.378482 3.534376 -2.392493 0.025648 0.683885 0.000000 0.000000 0.000000 -9.044584 -3.929862 4.087960 -17.379935 -12.273758 -12.794233 34.529649 -0.616886 -1.856717 -6.714989 -15.673614 2.697309 -1.470043 0.392691 -0.385617 0.000000 0.000000 0.000000 -9.766428 -1.999495 4.273847 7.557910 0.605056 -2.888883 13.790388 2.530642 -1.422314 0.442248 -1.780535 0.694678 0.000000 0.000000 0.000000 14.222138 2.646747 -2.242807 30.464467 -0.738403 -4.633913 1.730306 -1.665763 -5.885154 0.000000 0.000000 0.000000 14.668449 3.012130 -2.886781 -4.170194 -23.134614 -26.028229 -3.172189 -1.215305 -4.865356 5.354702 -43.790569 -24.666897 8.824971 -20.157292 -2.085728 0.000000 0.000000 0.000000 14.271922 3.034098 -2.638708 -0.357435 23.783233 24.099004 -0.160778 0.499319 1.064059 -6.859031 21.453616 40.091933 35.400099 41.678788 -16.833210 0.000000 0.000000 0.000000 
-6.211989 99.367172 -9.903246 0.000000 0.000000 0.000000 -10.507957 -3.935549 4.784744 -9.170711 7.718221 -1.095572 21.439907 1.958787 -0.230034 -2.332372 4.094619 3.337951 -1.417917 0.110441 0.463975 0.000000 0.000000 0.000000 -9.920256 -3.775530 4.526931 -15.532311 -12.908875 -13.801446 33.178211 -0.479731 -1.886372 -6.836270 -14.599565 2.997297 -1.154141 0.272716 -0.155977 0.000000 0.000000 0.000000 -11.076838 -1.739927 4.648901 7.712988 0.564091 -3.645392 12.254986 2.570093 -1.725440 0.865916 -1.727399 0.533740 0.000000 0.000000 0.000000 12.622406 2.724869 -2.432691 28.727038 -0.079580 -4.562452 1.365371 -0.244613 -6.067322 0.000000 0.000000 0.000000 13.224327 3.084742 -2.974171 -2.678571 -22.255996 -22.587202 -3.462489 -1.154122 -4.550264 4.993180 -40.945256 -28.007257 7.763271 -19.386382 -2.184828 0.000000 0.000000 0.000000 12.872300 3.079102 -2.784287 0.347483 22.171677 22.857095 0.201494 0.053750 1.506978 -2.376908 23.846484 40.858496 33.474405 43.859199 -15.669794 0.000000 0.000000 0.000000 
-5.864086 99.486816 -9.597372 0.000000 0.000000 0.000000 -10.671786 -4.348821 5.012391 -7.095486 8.306195 -1.493669 19.168192 1.897379 -0.264304 -1.710675 3.691127 3.375766 -0.761926 0.118502 0.316915 0.000000 0.000000 0.000000 -10.289817 -3.483364 4.738217 -14.306670 -13.178057 -14.532156 32.379140 -0.319657 -1.872878 -7.134320 -13.585036 3.498699 -1.393825 0.184646 -0.109783 0.000000 0.000000 0.000000 -11.610475 -1.381858 4.786724 7.637095 0.492344 -4.300413 10.764938 2.572768 -2.010422 0.954912 -1.775120 0.249249 0.000000 0.000000 0.000000 11.149603 2.742608 -2.632379 26.945458 0.429750 -4.042440 0.645891 0.769094 -5.863810 0.000000 0.000000 0.000000 11.819116 3.097222 -3.053927 -1.033346 -21.361803 -18.527098 -3.924561 -1.016103 -4.248101 4.470370 -36.401299 -31.575507 8.409968 -20.131836 -1.278842 0.000000 0.000000 0.000000 11.450529 3.061187 -2.932283 1.194584 20.403073 20.614291 0.460562 -0.335416 1.976222 1.142414 24.923429 41.974426 32.527420 45.381843 -15.408480 0.000000 0.000000 0.000000 
-5.698534 99.484459 -9.305445 0.000000 0.000000 0.000000 -10.474519 -4.593139 4.949254 -6.116415 8.707121 -1.615536 17.853609 1.900456 -0.304675 -1.215468 3.215495 3.660691 -0.570507 0.053523 0.330385 0.000000 0.000000 0.000000 -10.247845 -3.274113 4.768409 -13.778235 -13.075948 -15.084135 32.050977 -0.120960 -1.800298 -7.178739 -12.721328 4.194213 -2.106606 0.120244 -0.224688 0.000000 0.000000 0.000000 -11.568737 -1.178323 4.681664 7.272893 0.459605 -4.739534 9.384611 2.540432 -2.239971 1.160976 -1.941628 0.124367 0.000000 0.000000 0.000000 9.842517 2.704935 -2.801316 25.030847 0.788847 -3.263767 -0.531882 1.429819 -5.385860 0.000000 0.000000 0.000000 10.561714 3.036216 -3.148358 0.565494 -20.282192 -14.470982 -4.485743 -1.052413 -4.256214 4.278675 -30.632832 -35.090011 10.657565 -21.230116 0.299868 0.000000 0.000000 0.000000 10.114751 2.993897 -3.076257 2.061386 18.557115 17.719778 0.249531 -0.443991 2.546152 2.971632 24.326082 43.669426 32.767477 45.937031 -16.102400 0.000000 0.000000 0.000000 
-5.632589 99.418427 -9.098024 0.000000 0.000000 0.000000 -10.172246 -4.724452 4.711238 -5.922672 9.001791 -1.594334 17.278855 1.999864 -0.364968 -0.931141 2.894454 4.178203 -0.575190 -0.034628 0.404839 0.000000 0.000000 0.000000 -9.970030 -3.332358 4.682998 -13.764264 -12.802192 -15.494064 31.992698 0.006093 -1.686703 -6.934575 -12.201797 4.768191 -2.760467 0.064734 -0.371585 0.000000 0.000000 0.000000 -11.168701 -1.307518 4.418729 6.720048 0.479266 -4.949457 8.141656 2.489520 -2.376452 1.207566 -1.855261 0.385877 0.000000 0.000000 0.000000 8.756223 2.625575 -2.899078 22.989853 1.007862 -2.480610 -1.986229 1.761552 -4.811416 0.000000 0.000000 0.000000 9.458163 2.929324 -3.241993 1.903458 -18.972585 -11.098967 -5.182129 -1.222528 -4.244642 3.909868 -24.245799 -38.648472 14.156011 -21.132100 2.061928 0.000000 0.000000 0.000000 8.931034 2.901707 -3.164929 2.843835 16.786489 14.750856 -0.229157 -0.276281 3.248225 3.005465 22.105501 46.010883 33.955602 45.386672 -17.329809 0.000000 0.000000 0.000000 
-5.553847 99.345718 -8.960505 0.000000 0.000000 0.000000 -9.867746 -4.698790 4.424157 -6.201548 9.222693 -1.569340 17.033481 2.184489 -0.425001 -0.913988 2.777276 4.788911 -0.433977 -0.089441 0.419230 0.000000 0.000000 0.000000 -9.611555 -3.606581 4.552385 -13.939655 -12.547121 -15.756685 31.909988 -0.028753 -1.516440 -6.759590 -12.085880 4.880244 -2.915850 0.022277 -0.448477 0.000000 0.000000 0.000000 -10.692349 -1.736979 4.166833 6.028261 0.519024 -4.968975 7.054103 2.421590 -2.409461 1.264524 -1.869651 0.612138 0.000000 0.000000 0.000000 7.822428 2.519406 -2.877781 20.880587 1.092236 -1.899134 -3.276044 1.890139 -4.344890 0.000000 0.000000 0.000000 8.505659 2.795949 -3.262105 2.897384 -17.539875 -8.568149 -5.732480 -1.565492 -4.273522 2.449648 -17.572905 -42.435740 17.963498 -19.462013 3.316627 0.000000 0.000000 0.000000 7.939710 2.792932 -3.148245 3.477013 15.257473 12.220603 -0.876237 -0.058945 4.165538 1.656785 18.555884 48.943793 35.628278 43.826892 -18.490471 0.000000 0.000000 0.000000 
-5.457802 99.331390 -8.881002 0.000000 0.000000 0.000000 -9.633256 -4.665918 4.208778 -6.358457 9.408450 -1.599960 16.746640 2.338168 -0.453215 -1.124485 2.734545 5.217050 -0.292171 -0.094443 0.382364 0.000000 0.000000 0.000000 -9.315937 -3.927600 4.478034 -13.966539 -12.472151 -15.877980 31.660270 -0.221665 -1.316862 -6.843677 -12.281723 4.471350 -2.595139 0.009313 -0.417998 0.000000 0.000000 0.000000 -10.313038 -2.348593 4.003547 5.374301 0.537762 -4.911274 6.135517 2.330865 -2.368620 1.516148 -1.790950 0.847212 0.000000 0.000000 0.000000 6.982432 2.405028 -2.736794 18.783626 1.080707 -1.609124 -4.059657 1.928833 -4.103857 0.000000 0.000000 0.000000 7.630494 2.654974 -3.183226 3.497685 -16.074437 -6.949263 -6.105240 -2.034451 -3.941411 -0.026727 -10.612831 -45.997130 21.496806 -16.912349 3.630026 0.000000 0.000000 0.000000 7.145886 2.673756 -3.024763 3.969111 14.081240 10.487662 -1.348756 0.415650 4.653421 -0.225354 14.340600 52.063663 37.363921 41.566182 -19.082835 0.000000 0.000000 0.000000 
-5.292866 99.356369 -8.741945 0.000000 0.000000 0.000000 -9.495460 -4.773291 4.123005 -6.120448 9.543927 -1.681872 16.393236 2.397101 -0.427867 -1.394323 2.660537 5.388262 -0.288853 -0.057283 0.282358 0.000000 0.000000 0.000000 -9.147344 -4.209146 4.469608 -13.751574 -12.587094 -15.897614 31.330470 -0.489078 -1.107687 -7.077828 -12.661910 3.841855 -2.216859 0.019857 -0.309659 0.000000 0.000000 0.000000 -10.106167 -2.947273 3.992480 4.857652 0.485301 -4.867253 5.378508 2.231716 -2.308810 1.467628 -1.348049 0.908736 0.000000 0.000000 0.000000 6.228882 2.295528 -2.518739 16.761846 0.971212 -1.597165 -4.081426 1.808523 -4.072677 0.000000 0.000000 0.000000 6.817288 2.531615 -3.017508 3.792446 -14.752538 -6.041184 -6.055076 -2.822592 -3.293905 -3.278807 -3.532941 -48.940385 24.401337 -14.369251 3.014030 0.000000 0.000000 0.000000 6.513545 2.551302 -2.825522 4.297175 13.248399 9.568416 -1.615085 0.907564 4.485822 -1.883969 9.918749 54.941915 38.776623 38.935729 -18.862319 0.000000 0.000000 0.000000 
-5.129057 99.395668 -8.504873 0.000000 0.000000 0.000000 -9.433452 -5.085940 4.179730 -5.470608 9.702336 -1.760263 16.182475 2.342215 -0.334636 -1.605548 2.388952 5.420268 -0.391376 -0.009628 0.150824 0.000000 0.000000 0.000000 -9.138276 -4.422998 4.545986 -13.435481 -12.767366 -15.903739 30.982964 -0.634512 -0.915765 -7.225563 -12.928088 3.483241 -2.166599 0.050931 -0.205812 0.000000 0.000000 0.000000 -10.066435 -3.336541 4.143672 4.499295 0.372772 -4.853865 4.777367 2.121698 -2.268530 1.426806 -0.935986 0.657411 0.000000 0.000000 0.000000 5.533284 2.186042 -2.290345 14.813058 0.789206 -1.741664 -3.405556 1.441058 -4.096246 0.000000 0.000000 0.000000 6.101544 2.423116 -2.809551 3.872742 -13.731622 -5.443280 -5.647224 -3.584560 -2.764365 -6.296681 3.066946 -51.102478 26.537223 -12.717615 1.815930 0.000000 0.000000 0.000000 6.006354 2.431504 -2.599865 4.423593 12.706901 9.218710 -1.761356 1.022271 3.523408 -2.924088 5.842669 57.342628 39.659343 36.442211 -17.983490 0.000000 0.000000 0.000000 
-5.044620 99.400864 -8.139887 0.000000 0.000000 0.000000 -9.474823 -5.664125 4.331990 -4.498056 9.956336 -1.793605 16.182904 2.203832 -0.187989 -1.774948 1.932148 5.422905 -0.497270 0.031263 0.001359 0.000000 0.000000 0.000000 -9.238626 -4.653403 4.651717 -13.157267 -12.875057 -15.945232 30.747708 -0.575191 -0.793992 -7.200619 -12.974188 3.582874 -2.486936 0.081133 -0.115954 0.000000 0.000000 0.000000 -10.155326 -3.491337 4.363356 4.351369 0.237435 -4.849249 4.310409 2.013651 -2.274332 1.165936 -0.417214 0.371208 0.000000 0.000000 0.000000 4.977019 2.081979 -2.121734 12.898059 0.561892 -1.902096 -2.385508 0.757382 -3.988112 0.000000 0.000000 0.000000 5.497782 2.334779 -2.640554 3.831453 -13.135662 -4.985231 -4.899498 -4.231375 -2.354477 -7.926438 8.425666 -52.488225 28.085738 -12.256241 0.451837 0.000000 0.000000 0.000000 5.595275 2.322541 -2.403087 4.363523 12.311971 9.134053 -1.869374 1.104351 2.204298 -3.152858 2.547937 59.208294 40.035086 34.498790 -16.781831 0.000000 0.000000 0.000000 
